<?xml version="1.0" encoding="UTF-8" standalone="no"?>
<svg width="11px" height="9px" viewBox="0 0 11 9" version="1.1" xmlns="http://www.w3.org/2000/svg" xmlns:xlink="http://www.w3.org/1999/xlink">
    <!-- Generator: Sketch 3.7.2 (28276) - http://www.bohemiancoding.com/sketch -->
    <title>path22</title>
    <desc>Created with Sketch.</desc>
    <defs></defs>
    <g id="Page-1" stroke="none" stroke-width="1" fill="none" fill-rule="evenodd">
        <path d="M2.01955381,0.792462254 C1.89417889,0.836463773 1.78259788,0.903651186 1.68454346,0.994238354 C1.58650687,1.08482552 1.50889382,1.19744018 1.4516865,1.33190412 C1.394497,1.46651063 1.36589334,1.62711884 1.36589334,1.81371094 L1.36589334,3.38675186 C1.36589334,3.51852473 1.34675295,3.62559688 1.30870384,3.70795047 C1.27052999,3.79032188 1.22419384,3.85478259 1.16980233,3.90149299 C1.11528607,3.94807864 1.05401543,3.97972979 0.985954754,3.99621477 C0.917787152,4.01268192 0.856516508,4.0209155 0.802125,4.0209155 L0.802125,4.74568413 C0.856516508,4.74568413 0.917787152,4.75391771 0.985954754,4.77038486 C1.05401543,4.78685202 1.11528607,4.81566954 1.16980233,4.85685524 C1.22419384,4.89804095 1.27052999,4.95697696 1.30870384,5.03393061 C1.34675295,5.11075951 1.36589334,5.20687137 1.36589334,5.32217709 L1.36589334,6.95288869 C1.36589334,7.13948079 1.394497,7.30007118 1.4516865,7.43467769 C1.50889382,7.56915945 1.58650687,7.68175629 1.68454346,7.77236128 C1.78259788,7.86294845 1.89417889,7.93011804 2.01955381,7.97413738 C2.14478616,8.01801414 2.27552538,8.04002381 2.41173583,8.04002381 L3.0082068,8.04002381 L3.0082068,7.34820731 L2.55881745,7.34820731 C2.40075773,7.34820731 2.30143798,7.2959544 2.26059088,7.19171589 C2.21972596,7.08735262 2.19930242,6.97475579 2.19930242,6.85405012 L2.19930242,5.30570994 C2.19930242,5.1464027 2.16930867,5.01051303 2.10942811,4.89804095 C2.0494228,4.78544411 1.97868889,4.69343121 1.8969947,4.62214483 C1.81528268,4.55071588 1.72808162,4.4957719 1.63551625,4.45741983 C1.54284396,4.41894301 1.46394776,4.39693334 1.39857815,4.39153339 L1.39857815,4.37504842 C1.46394776,4.36952372 1.54284396,4.35163084 1.63551625,4.32151235 C1.72808162,4.29128692 1.81528268,4.24045973 1.8969947,4.16915553 C1.97868889,4.0977444 2.0494228,4.00161471 2.10942811,3.88090905 C2.16930867,3.76007863 2.19930242,3.60358721 2.19930242,3.41145259 L2.19930242,1.91253169 C2.19930242,1.79182602 2.21972596,1.67922919 2.26059088,1.57486592 C2.30143798,1.47062741 2.40075773,1.41839232 2.55881745,1.41839232 L3.0082068,1.41839232 L3.0082068,0.726575817 L2.41173583,0.726575817 C2.27552538,0.726575817 2.14478616,0.748585487 2.01955381,0.792462254 M7.08956594,4.97866584 C6.87105537,4.91172793 6.64520229,4.86341359 6.415874,4.83235055 L6.415874,4.83211887 L6.42341254,4.83211887 L6.42341254,0.599347449 C6.80099868,0.636309438 7.08070861,0.838281575 7.08070861,1.31759338 C7.08070861,1.79886555 7.09115207,4.03460249 7.09115207,4.83320598 C7.09090256,4.88463911 7.09100949,4.93215148 7.08956594,4.97866584 M6.90712627,5.60375829 C6.68968499,6.06047231 6.43301838,6.599932 6.13486309,7.19358715 C6.13486309,7.19358715 5.96331242,7.1309086 5.7990686,7.13171057 C5.63555546,7.13251255 5.47934918,7.19681286 5.47934918,7.19681286 C5.18254833,6.60584877 4.90777498,6.06850985 4.68960301,5.61024535 C4.596503,5.42834033 4.5487233,5.30187829 4.52450376,5.19904769 C5.33839818,4.90825272 6.24940248,4.91723481 7.0631187,5.20287933 C7.03888133,5.31082473 6.99334715,5.43496997 6.90712627,5.60375829 M4.49750404,1.31759338 C4.49750404,0.805079943 4.7812773,0.630909494 5.17757611,0.595925703 L5.17757611,4.83327727 C4.94737456,4.86442942 4.72041655,4.9122804 4.50062282,4.9774718 C4.50062282,4.93186634 4.50233369,4.88567276 4.50247626,4.83402578 C4.50247626,4.036349 4.49750404,1.83024938 4.49750404,1.31759338 M6.25353709,0.569086381 L6.25353709,4.67732049 L6.25353709,4.78569361 L6.25351927,4.7904698 C6.25351927,4.79050544 6.25353709,4.79054109 6.25353709,4.79057673 L6.25353709,4.8134953 C5.95304718,4.78387581 5.64840483,4.7841966 5.34745155,4.81370916 L5.34745155,0.56762501 C5.63826434,0.518490872 5.96341935,0.51745722 6.25353709,0.569086381 M5.79935374,0.101376438 C4.91939466,0.10207148 4.04615432,0.342449155 4.04615432,1.11603114 L4.04615432,4.87141548 C4.04526324,5.16033919 4.00311517,5.31531578 4.2995774,5.8601754 C4.59505945,6.44393958 5.16440595,7.56935549 5.42536757,8.0843283 C5.68632919,8.59930111 5.70910518,8.65998364 5.80571605,8.65998364 C5.90232692,8.65998364 5.90646153,8.60978021 6.17460525,8.08067487 C6.44276679,7.55156953 7.00826383,6.43369216 7.30274786,5.85192401 C7.56057288,5.377228 7.55034329,5.17926572 7.55198287,4.87036401 L7.55198287,1.11603114 C7.55198287,0.339116517 6.67223765,0.100699217 5.79935374,0.101376438 M10.614321,3.99539498 C10.5490049,3.97892782 10.489053,3.94725885 10.4346972,3.90069102 C10.3802344,3.8539628 10.3339161,3.78950209 10.2959026,3.70713067 C10.2577644,3.62477708 10.2387487,3.51770494 10.2387487,3.38593207 L10.2387487,1.81283768 C10.2387487,1.62622776 10.2101807,1.46561955 10.1530269,1.33101304 C10.095873,1.19653128 10.0182956,1.08393444 9.92033029,0.993329453 C9.82234716,0.902742285 9.71073051,0.835572693 9.58556945,0.791553353 C9.46030146,0.747658764 9.32965134,0.725666916 9.19367257,0.725666916 L8.59762932,0.725666916 L8.59762932,1.41750124 L9.04669788,1.41750124 C9.2045081,1.41750124 9.30389914,1.46973633 9.34471059,1.57397484 C9.38553987,1.67835593 9.40594559,1.79095277 9.40594559,1.91165843 L9.40594559,3.4106328 C9.40594559,3.60276741 9.43579677,3.75925884 9.49576643,3.88008926 C9.55559353,4.00081274 9.62639873,4.09694242 9.70803945,4.16835356 C9.78968018,4.23965776 9.87670303,4.29048495 9.96932186,4.3207282 C10.0617981,4.35084669 10.1407656,4.36872175 10.2060996,4.37426427 L10.2060996,4.39073142 C10.1407656,4.39613136 10.0617981,4.41814103 9.96932186,4.45661786 C9.87670303,4.49496993 9.78968018,4.54991391 9.70803945,4.62134286 C9.62639873,4.69262924 9.55559353,4.78464214 9.49576643,4.8972568 C9.43579677,5.00972888 9.40594559,5.14561855 9.40594559,5.30494361 L9.40594559,6.85333726 C9.40594559,6.97404292 9.38553987,7.08663976 9.34471059,7.19100302 C9.30389914,7.29524153 9.2045081,7.34749445 9.04669788,7.34749445 L8.59762932,7.34749445 L8.59762932,8.03932877 L9.19367257,8.03932877 C9.32965134,8.03932877 9.46030146,8.0173191 9.58556945,7.97344233 C9.71073051,7.92942299 9.82234716,7.8622534 9.92033029,7.77166623 C10.0182956,7.68106125 10.095873,7.56844659 10.1530269,7.43398265 C10.2101807,7.29937614 10.2387487,7.13876793 10.2387487,6.952158 L10.2387487,5.32141076 C10.2387487,5.20610504 10.2577644,5.10997536 10.2959026,5.03314646 C10.3339161,4.95619281 10.3802344,4.8972568 10.4346972,4.85607109 C10.489053,4.81488539 10.5490049,4.78606787 10.614321,4.76958289 C10.6796372,4.75311574 10.7421553,4.74488216 10.802125,4.74488216 L10.802125,4.02011353 C10.7421553,4.02011353 10.6796372,4.01186213 10.614321,3.99539498" id="path22" fill="#774701" transform="translate(5.802125, 4.380679) scale(1, -1) translate(-5.802125, -4.380679) "></path>
    </g>
</svg>